<svg width="208" height="129" viewBox="0 0 208 129" fill="none" xmlns="http://www.w3.org/2000/svg">
<rect width="208" height="129" fill="white"/>
<g clip-path="url(#clip0_489_522)">
<path d="M144.356 89.8016C164.2 69.92 164.2 37.6855 144.356 17.8039C124.513 -2.07775 92.34 -2.07775 72.4966 17.8039C52.6531 37.6855 52.6531 69.92 72.4965 89.8016C92.34 109.683 124.513 109.683 144.356 89.8016Z" fill="#672A6B"/>
<path d="M108.312 41.9517C107.885 41.9517 107.539 41.6051 107.539 41.1779C107.539 34.1298 113.263 28.3967 120.297 28.3967H136.813C141.647 28.3967 145.581 24.4561 145.581 19.611C145.581 14.7658 141.648 10.8267 136.813 10.8267C136.386 10.8267 136.04 10.4801 136.04 10.0529C136.04 9.62568 136.386 9.27905 136.813 9.27905C142.5 9.27905 147.126 13.9144 147.126 19.6125C147.126 25.3105 142.5 29.9459 136.813 29.9459H120.297C114.116 29.9459 109.086 34.9857 109.086 41.1794C109.086 41.6066 108.74 41.9532 108.313 41.9532L108.312 41.9517Z" fill="#BAC5CF"/>
<path d="M129.075 33.5657C123.831 33.5657 119.146 35.9495 116.031 39.6909H100.594C97.4791 35.9495 92.7935 33.5657 87.5494 33.5657C78.169 33.5657 70.5654 41.1839 70.5654 50.5823C70.5654 59.9808 78.169 67.599 87.5494 67.599C92.6933 67.599 97.294 65.2988 100.408 61.6789H116.217C119.332 65.2988 123.932 67.599 129.075 67.599C138.456 67.599 146.059 59.9808 146.059 50.5823C146.059 41.1839 138.456 33.5657 129.075 33.5657Z" fill="white"/>
<path d="M129.075 62.988C135.914 62.988 141.457 57.4338 141.457 50.5824C141.457 43.7309 135.914 38.1768 129.075 38.1768C122.237 38.1768 116.694 43.7309 116.694 50.5824C116.694 57.4338 122.237 62.988 129.075 62.988Z" fill="#672A6B"/>
<path d="M128.306 47.1573C128.306 45.5929 127.041 44.325 125.479 44.325C123.918 44.325 122.652 45.5929 122.652 47.1573C122.652 48.7216 123.918 49.9896 125.479 49.9896C127.041 49.9896 128.306 48.7216 128.306 47.1573Z" fill="#BAC5CF"/>
<path d="M135.497 47.1573C135.497 45.5929 134.231 44.325 132.67 44.325C131.109 44.325 129.843 45.5929 129.843 47.1573C129.843 48.7216 131.109 49.9896 132.67 49.9896C134.231 49.9896 135.497 48.7216 135.497 47.1573Z" fill="#BAC5CF"/>
<path d="M128.306 53.9544C128.306 52.39 127.041 51.1221 125.479 51.1221C123.918 51.1221 122.652 52.39 122.652 53.9544C122.652 55.5188 123.918 56.7867 125.479 56.7867C127.041 56.7867 128.306 55.5188 128.306 53.9544Z" fill="#BAC5CF"/>
<path d="M135.497 53.9544C135.497 52.39 134.231 51.1221 132.67 51.1221C131.109 51.1221 129.843 52.39 129.843 53.9544C129.843 55.5188 131.109 56.7867 132.67 56.7867C134.231 56.7867 135.497 55.5188 135.497 53.9544Z" fill="#BAC5CF"/>
<path d="M87.5478 62.988C94.3861 62.988 99.9296 57.4338 99.9296 50.5824C99.9296 43.7309 94.3861 38.1768 87.5478 38.1768C80.7095 38.1768 75.166 43.7309 75.166 50.5824C75.166 57.4338 80.7095 62.988 87.5478 62.988Z" fill="#672A6B"/>
<path d="M94.0816 48.6835L90.2214 48.6911C89.9195 48.6911 89.6737 48.4479 89.6737 48.1454L89.6661 44.2777C89.6661 43.9752 89.4203 43.7304 89.1183 43.7319L85.9485 43.738C85.6466 43.738 85.4023 43.9843 85.4038 44.2868L85.4114 48.1545C85.4114 48.457 85.1686 48.7018 84.8666 48.7033L81.0064 48.7109C80.7045 48.7109 80.4602 48.9572 80.4617 49.2597L80.4677 52.4356C80.4677 52.7382 80.7136 52.9829 81.0155 52.9814L84.8757 52.9738C85.1777 52.9738 85.422 53.2171 85.4235 53.5196L85.4311 57.3872C85.4311 57.6898 85.6769 57.9345 85.9789 57.933L89.1487 57.9269C89.4506 57.9269 89.6949 57.6806 89.6934 57.3781L89.6858 53.5105C89.6858 53.2079 89.9286 52.9632 90.2305 52.9616L94.0907 52.954C94.3927 52.954 94.637 52.7078 94.6355 52.4052L94.6294 49.2293C94.6294 48.9268 94.3836 48.682 94.0816 48.6835Z" fill="#BAC5CF"/>
<path d="M113.108 50.5581H108.911C108.86 50.5581 108.818 50.5996 108.818 50.6508V51.8838C108.818 51.935 108.86 51.9765 108.911 51.9765H113.108C113.159 51.9765 113.201 51.935 113.201 51.8838V50.6508C113.201 50.5996 113.159 50.5581 113.108 50.5581Z" fill="#672A6B"/>
<path d="M108.075 50.5581H103.878C103.827 50.5581 103.785 50.5996 103.785 50.6508V51.8838C103.785 51.935 103.827 51.9765 103.878 51.9765H108.075C108.126 51.9765 108.167 51.935 108.167 51.8838V50.6508C108.167 50.5996 108.126 50.5581 108.075 50.5581Z" fill="#672A6B"/>
<path d="M114.238 49.4087H102.664C102.551 49.4087 102.459 49.5006 102.459 49.6139V52.919C102.459 53.0324 102.551 53.1243 102.664 53.1243H114.238C114.352 53.1243 114.443 53.0324 114.443 52.919V49.6139C114.443 49.5006 114.352 49.4087 114.238 49.4087Z" stroke="#672A6B" stroke-width="0.5" stroke-miterlimit="10"/>
<path d="M56.4842 72.9416C56.0578 72.9416 55.6587 72.674 55.5115 72.2483C55.2171 71.4015 54.9425 70.5471 54.6891 69.6821C54.5283 69.1348 54.8393 68.5616 55.3856 68.4005C55.9333 68.2393 56.5039 68.5525 56.6647 69.0983C56.9105 69.9299 57.173 70.7539 57.4568 71.5703C57.6434 72.1085 57.3597 72.6968 56.8225 72.8838C56.7102 72.9234 56.5964 72.9416 56.4842 72.9416Z" fill="#672A6B"/>
<path d="M54.5586 65.9314C54.0791 65.9314 53.6497 65.5955 53.5511 65.1059C52.7969 61.4101 52.4146 57.6078 52.4146 53.8025C52.4146 40.7949 56.9561 28.1172 65.2045 18.1045C65.5672 17.6652 66.2151 17.6013 66.6551 17.9662C67.0936 18.3295 67.1559 18.9802 66.7932 19.4196C58.8482 29.0628 54.4736 41.2753 54.4736 53.8025C54.4736 57.468 54.8424 61.1319 55.5677 64.6924C55.683 65.2503 55.3218 65.7961 54.765 65.9102C54.6952 65.9254 54.6269 65.9314 54.5571 65.9314H54.5586Z" fill="#672A6B"/>
<path d="M159.839 35.2701C159.423 35.2701 159.031 35.0162 158.877 34.6042C154.149 22.1393 145.02 11.8956 133.175 5.75814C132.67 5.49665 132.473 4.87333 132.732 4.36707C132.993 3.86233 133.614 3.66165 134.121 3.92466C146.419 10.2962 155.893 20.9307 160.802 33.8714C161.004 34.405 160.737 35.001 160.206 35.2032C160.084 35.2488 159.962 35.2716 159.84 35.2716L159.839 35.2701Z" fill="#672A6B"/>
<path d="M12.3527 82.5905L17.4814 78.6013L29.3519 78.2014L32.2425 81.9201L29.886 90.043L21.9577 90.309L23.1898 86.449L19.0686 86.5874L14.738 102.502L18.6331 102.371L19.6437 98.4761L17.7849 98.5384L18.8926 94.5476L28.9042 94.2101L25.6252 106.271L20.4934 110.307L8.30586 110.717L5.46533 106.95L12.3542 82.589L12.3527 82.5905Z" fill="#672A6B"/>
<path d="M8.30592 113.301C7.50019 113.301 6.73847 112.922 6.24988 112.276L3.40935 108.509C2.92379 107.864 2.76598 107.028 2.98752 106.249L9.87641 81.8882C10.0266 81.3592 10.3407 80.8909 10.7747 80.5534L15.9034 76.5641C16.3313 76.2312 16.8548 76.0412 17.3965 76.0229L29.267 75.6231C30.1228 75.6033 30.8799 75.9651 31.3852 76.6158L34.2758 80.3345C34.7826 80.9882 34.948 81.8456 34.7159 82.6408L32.3594 90.7637C32.1287 91.5588 31.54 92.1776 30.795 92.4588C30.8405 92.5075 30.883 92.5592 30.9254 92.6108C31.4323 93.2539 31.6052 94.0992 31.3898 94.8898L28.1107 106.95C27.965 107.485 27.6525 107.96 27.217 108.302L22.0852 112.338C21.6543 112.677 21.1277 112.869 20.5815 112.887L8.39393 113.297C8.3651 113.297 8.33627 113.297 8.30744 113.297L8.30592 113.301ZM8.29226 106.421L9.55624 108.097L19.5664 107.761L23.3644 104.773L25.5023 96.9102L21.7787 97.0364C22.1899 97.6476 22.3234 98.4092 22.1368 99.1283L21.1262 103.023C20.8394 104.13 19.8592 104.915 18.7197 104.954L14.8246 105.085C13.987 105.114 13.2253 104.749 12.7185 104.107C12.2116 103.464 12.0387 102.619 12.2541 101.828L16.5847 85.914C16.8821 84.8224 17.8548 84.0516 18.9837 84.0136L23.1049 83.8752C23.9698 83.8448 24.7406 84.2295 25.2459 84.8984C25.7512 85.5688 25.8999 86.4415 25.645 87.2412L25.5266 87.6121L27.9377 87.5315L29.4066 82.4705L28.1304 80.8301L18.4056 81.157L14.6045 84.1139L8.2953 106.426L8.29226 106.421Z" fill="#672A6B"/>
<path d="M28.6478 110.035L36.5427 81.8215L41.9476 77.7775L53.8181 77.3777L56.6586 81.1435L48.7182 109.359L40.7459 109.628L43.0568 101.506L38.9341 101.645L36.6216 109.766L28.6493 110.034L28.6478 110.035ZM47.3814 85.6374L43.5303 85.7667L41.2223 93.8425L45.345 93.7041L47.3814 85.6374Z" fill="#672A6B"/>
<path d="M28.6479 112.615C27.8588 112.615 27.1123 112.252 26.6222 111.628C26.1154 110.981 25.9469 110.131 26.1685 109.339L34.0634 81.1252C34.2166 80.5764 34.5474 80.0945 35.0026 79.7539L40.4075 75.7099C40.8294 75.3937 41.3377 75.2158 41.8627 75.1991L53.7331 74.7993C54.5889 74.7689 55.3689 75.1535 55.8742 75.8224L58.7147 79.5882C59.2002 80.2328 59.358 81.0675 59.1395 81.8443L51.1991 110.059C50.8941 111.14 49.9276 111.901 48.8062 111.939L40.8339 112.208C39.9842 112.233 39.2437 111.876 38.7369 111.242C38.2817 111.897 37.5382 112.319 36.7097 112.346L28.7374 112.614C28.7086 112.614 28.6797 112.614 28.6509 112.614L28.6479 112.615ZM38.7855 83.3631L32.0771 107.337L34.6582 107.25L36.4548 100.936C36.7613 99.8583 37.7279 99.1027 38.8446 99.0647L42.9674 98.9263C43.8201 98.8929 44.5773 99.2669 45.0826 99.9161C45.5894 100.567 45.7563 101.42 45.5302 102.213L44.1888 106.929L46.7487 106.843L53.8318 81.6771L52.5678 80.0017L42.8399 80.3286L38.7855 83.3631ZM41.2224 96.4224C40.4303 96.4224 39.6807 96.0575 39.1921 95.4297C38.6853 94.779 38.5199 93.9246 38.746 93.1325L41.0539 85.0567C41.362 83.9803 42.327 83.2247 43.4438 83.1883L47.2949 83.059C48.1295 83.021 48.879 83.3874 49.3859 84.0183C49.8942 84.6493 50.0763 85.4839 49.8775 86.2699L47.8412 94.3366C47.5589 95.451 46.5772 96.2445 45.4301 96.2825L41.3073 96.4209C41.2785 96.4209 41.2497 96.4209 41.2209 96.4209L41.2224 96.4224Z" fill="#672A6B"/>
<path d="M60.9589 81.0006L66.0922 76.9657L74.1115 76.6966L76.952 80.4624L82.0853 76.4291L90.1047 76.1584L92.9467 79.9242L85.0063 108.139L77.0309 108.407L83.9441 84.362L79.8229 84.5003L72.9097 108.545L64.8904 108.816L71.8036 84.7709L67.9525 84.9001L61.0393 108.945L53.067 109.213L60.9619 80.9991L60.9589 81.0006Z" fill="#672A6B"/>
<path d="M53.0655 111.794C52.2764 111.794 51.5299 111.431 51.0398 110.807C50.533 110.16 50.3645 109.31 50.5861 108.518L58.481 80.3043C58.6282 79.7767 58.9408 79.3085 59.3717 78.971L64.505 74.9361C64.9359 74.5986 65.4624 74.4055 66.0087 74.3873L74.028 74.1182C74.902 74.0848 75.6622 74.4724 76.169 75.1414L77.43 76.8106L80.4996 74.3979C80.9306 74.0604 81.4571 73.8674 82.0034 73.8491L90.0227 73.5785C90.8982 73.5466 91.6584 73.9327 92.1637 74.6017L95.0058 78.3674C95.4913 79.012 95.6491 79.8467 95.4306 80.6235L87.4902 108.839C87.1852 109.92 86.2186 110.68 85.0973 110.718L77.122 110.985C76.2692 111.017 75.5317 110.654 75.0265 110.021C74.5713 110.675 73.8277 111.096 73.0008 111.124L64.9814 111.394C64.2136 111.423 63.5308 111.124 63.0271 110.592C62.5673 111.148 61.8829 111.499 61.1303 111.524L53.158 111.791C53.1292 111.791 53.1004 111.791 53.0715 111.791L53.0655 111.794ZM63.2122 82.5102L56.4947 106.517L59.0819 106.431L65.4776 84.1871C65.7872 83.1123 66.7507 82.3597 67.866 82.3217L71.7171 82.1925C72.5744 82.1697 73.3285 82.5345 73.8353 83.1852C74.3421 83.8374 74.5075 84.6918 74.2784 85.4854L68.3455 106.119L70.9523 106.031L77.348 83.7873C77.4436 83.4574 77.5999 83.1563 77.8048 82.8979C77.4285 83.0302 77.0249 83.0758 76.6212 83.021C75.9354 82.9313 75.3148 82.571 74.899 82.0176L72.8642 79.3191L67.0208 79.5152L63.2137 82.5087L63.2122 82.5102ZM83.9441 81.782C84.7362 81.782 85.4857 82.1484 85.9759 82.7763C86.4827 83.4285 86.648 84.2829 86.4189 85.0765L80.486 105.71L83.0367 105.623L90.1198 80.4578L88.8558 78.7809L83.0124 78.9786L79.1598 82.007C79.3464 81.9584 79.5376 81.928 79.7364 81.9219L83.8576 81.7835C83.8864 81.7835 83.9153 81.7835 83.9441 81.7835V81.782Z" fill="#672A6B"/>
<path d="M111.641 99.2441L109.333 107.32L93.3397 107.858L90.4991 104.089L97.429 79.7722L102.517 75.7403L118.508 75.2021L116.246 83.2749L104.377 83.6747L103.092 87.6275L115.234 87.2185L112.926 95.2943L100.784 95.7033L99.7703 99.6439L111.639 99.2441H111.641Z" fill="#672A6B"/>
<path d="M93.3412 110.439C92.5355 110.439 91.7738 110.061 91.2852 109.415L88.4447 105.646C87.9576 105 87.8013 104.161 88.0228 103.382L94.9527 79.0652C95.1014 78.5453 95.4079 78.0861 95.8313 77.7502L100.919 73.7183C101.35 73.3763 101.88 73.1817 102.43 73.1634L118.422 72.6252C119.263 72.5888 120.027 72.9643 120.534 73.6104C121.041 74.258 121.209 75.1094 120.988 75.9015L118.725 83.9742C118.511 84.7374 117.968 85.3395 117.273 85.6435C117.774 86.2927 117.935 87.141 117.71 87.93L115.402 96.0058C115.164 96.8405 114.53 97.482 113.736 97.745C114.192 98.3836 114.334 99.1969 114.117 99.9556L111.809 108.031C111.501 109.108 110.536 109.863 109.419 109.9L93.4262 110.438C93.3974 110.438 93.3685 110.438 93.3397 110.438L93.3412 110.439ZM93.3291 103.562L94.59 105.236L107.374 104.805L108.192 101.943L99.8584 102.222C99.0284 102.251 98.2712 101.892 97.7629 101.258C97.2546 100.624 97.0755 99.7868 97.2773 99.0008L98.2909 95.0602C98.5762 93.9519 99.5564 93.1629 100.699 93.1249L110.967 92.7798L111.785 89.9171L103.18 90.2074C102.304 90.2378 101.538 89.8517 101.034 89.1797C100.529 88.5077 100.383 87.6305 100.644 86.8293L101.93 82.8766C102.265 81.8443 103.209 81.1328 104.292 81.0963L114.278 80.7603L115.079 77.9007L103.452 78.2929L99.6793 81.2818L93.3291 103.563V103.562Z" fill="#672A6B"/>
<path d="M142.281 86.3078L145.874 74.2808L153.85 74.0132L144.672 106.131L136.653 106.4L139.975 94.3836L136.124 94.5128L132.576 106.537L124.558 106.807L133.779 74.6882L141.753 74.4206L138.431 86.437L142.283 86.3078H142.281Z" fill="#672A6B"/>
<path d="M124.555 109.389C123.763 109.389 123.013 109.024 122.523 108.395C122.017 107.744 121.851 106.888 122.08 106.094L131.301 73.9752C131.609 72.9003 132.574 72.1463 133.69 72.1098L141.664 71.8422C142.501 71.8148 143.252 72.1736 143.759 72.8061C144.214 72.1508 144.959 71.7297 145.786 71.7023L153.762 71.4348C154.605 71.4028 155.371 71.7753 155.878 72.426C156.385 73.0767 156.55 73.9311 156.324 74.7232L147.147 106.841C146.839 107.917 145.874 108.673 144.757 108.709L136.738 108.978C135.922 109.012 135.172 108.658 134.665 108.042C134.209 108.679 133.474 109.088 132.661 109.115L124.643 109.386C124.614 109.386 124.585 109.386 124.557 109.386L124.555 109.389ZM135.734 77.2043L128.009 104.109L130.629 104.021L133.65 93.7816C133.966 92.7158 134.925 91.9724 136.034 91.9344L139.885 91.8052C140.721 91.7793 141.488 92.1427 141.994 92.7873C142.501 93.4319 142.673 94.2817 142.453 95.0723L140.067 103.705L142.709 103.616L150.396 76.7117L147.807 76.7984L144.745 87.0482C144.427 88.1093 143.469 88.8497 142.365 88.8877L138.513 89.017C137.659 89.0519 136.91 88.6794 136.404 88.0348C135.897 87.3902 135.726 86.5404 135.946 85.7498L138.331 77.1176L135.732 77.2043H135.734Z" fill="#672A6B"/>
<path d="M163.468 97.5002L170.336 73.4583L178.355 73.1892L170.189 101.409L165.011 105.447L153.187 105.845L150.255 102.081L158.194 73.8688L166.213 73.5982L159.346 97.6401L163.467 97.5017L163.468 97.5002Z" fill="#672A6B"/>
<path d="M153.187 108.425C152.394 108.425 151.645 108.06 151.156 107.432L148.225 103.668C147.719 103.021 147.554 102.171 147.776 101.382L155.714 73.1695C156.019 72.0886 156.986 71.3285 158.107 71.2905L166.127 71.0198C166.967 70.991 167.717 71.3513 168.222 71.9837C168.677 71.33 169.421 70.9089 170.248 70.8815L178.267 70.6124C179.115 70.5835 179.88 70.9545 180.387 71.6067C180.892 72.2589 181.058 73.1148 180.827 73.9099L172.661 102.13C172.509 102.651 172.196 103.113 171.77 103.448L166.593 107.486C166.163 107.82 165.64 108.01 165.096 108.028L153.272 108.427C153.243 108.427 153.214 108.427 153.185 108.427L153.187 108.425ZM153.088 101.523L154.411 103.221L164.089 102.896L167.948 99.8872L174.893 75.8878L172.296 75.9745L165.945 98.2103C165.638 99.2867 164.672 100.042 163.555 100.079L159.434 100.217C158.587 100.243 157.824 99.8765 157.317 99.2259C156.81 98.5752 156.645 97.7208 156.871 96.9287L162.766 76.2953L160.163 76.3834L153.089 101.523H153.088Z" fill="#672A6B"/>
<path d="M174.525 105.128L183.701 73.0099L199.694 72.4717L202.535 76.2374L200.269 84.3573L195.074 88.6674L197.914 92.4347L195.603 100.555L190.517 104.589L174.524 105.128H174.525ZM189.942 92.7037L186.091 92.833L184.806 96.7827L188.928 96.6443L189.942 92.7037ZM188.353 84.7587L192.25 84.6279L193.535 80.6767L189.367 80.8166L188.355 84.7587H188.353Z" fill="#672A6B"/>
<path d="M174.525 107.707C173.733 107.707 172.984 107.343 172.495 106.715C171.988 106.064 171.823 105.21 172.049 104.418L181.225 72.2998C181.533 71.2235 182.498 70.4679 183.614 70.4314L199.608 69.8932C200.476 69.8613 201.243 70.2474 201.749 70.9164L204.589 74.6821C205.075 75.3252 205.232 76.1568 205.014 76.9322L202.749 85.052C202.607 85.5583 202.315 86.0098 201.911 86.3458L198.612 89.0823L199.969 90.8808C200.456 91.527 200.612 92.3647 200.391 93.143L198.08 101.263C197.932 101.783 197.624 102.244 197.201 102.578L192.115 106.613C191.684 106.955 191.153 107.15 190.603 107.169L174.61 107.707C174.581 107.707 174.553 107.707 174.524 107.707H174.525ZM185.661 75.5244L177.976 102.429L189.585 102.038L193.356 99.0479L195.087 92.9637L193.021 90.2226C192.306 89.2739 192.341 87.9847 193.043 87.0832C192.819 87.1561 192.582 87.1987 192.339 87.2063L188.443 87.337C187.605 87.3644 186.856 87.0071 186.347 86.3732C185.84 85.7392 185.66 84.9031 185.862 84.1155L186.874 80.1734C187.159 79.0636 188.138 78.2761 189.282 78.2366L193.45 78.0967C194.326 78.0602 195.09 78.4524 195.596 79.1244C196.101 79.7979 196.247 80.6736 195.986 81.4748L194.7 85.426C194.667 85.5294 194.628 85.6298 194.582 85.7271L198.008 82.8841L199.714 76.7725L198.448 75.0941L185.664 75.5244H185.661ZM184.807 99.3626C184 99.3626 183.235 98.9825 182.75 98.3333C182.244 97.6598 182.099 96.7841 182.36 95.983L183.645 92.0332C183.98 91.001 184.924 90.2895 186.007 90.253L189.858 90.1237C190.691 90.0949 191.446 90.4536 191.954 91.0876C192.462 91.7216 192.641 92.5592 192.439 93.3452L191.426 97.2858C191.141 98.3941 190.16 99.1832 189.018 99.2212L184.895 99.3595C184.866 99.3595 184.837 99.3595 184.809 99.3595L184.807 99.3626Z" fill="#672A6B"/>
<path d="M11.9704 81.9841L17.0991 77.9948L28.968 77.595L31.8586 81.3151L29.5021 89.4381L21.5739 89.7041L22.806 85.8456L18.6832 85.984L14.3527 101.897L18.2508 101.765L19.2599 97.8696L17.4026 97.9319L18.5103 93.9412L28.5204 93.6037L25.2444 105.667L20.1111 109.701L7.92354 110.111L5.08301 106.345L11.9719 81.9841H11.9704Z" fill="white"/>
<path d="M28.2639 109.428L36.1603 81.2163L41.5652 77.1708L53.4341 76.771L56.2747 80.5398L48.3327 108.753L40.3604 109.021L42.6714 100.901L38.5487 101.039L36.2377 109.159L28.2639 109.428ZM47.0005 85.0323L43.1494 85.1615L40.8399 93.2373L44.9642 93.0989L47.0005 85.0323Z" fill="white"/>
<path d="M60.5765 80.3955L65.7098 76.3591L73.7292 76.0885L76.5697 79.8573L81.703 75.8209L89.7223 75.5503L92.5628 79.3191L84.6224 107.533L76.6501 107.8L83.5633 83.7553L79.4406 83.8937L72.5274 107.939L64.5081 108.209L71.4212 84.1643L67.5701 84.2935L60.657 108.338L52.6816 108.608L60.5781 80.3955H60.5765Z" fill="white"/>
<path d="M111.258 98.6374L108.95 106.713L92.9573 107.251L90.1183 103.486L97.0481 79.167L102.136 75.1336L118.129 74.5955L115.865 82.6682L103.996 83.0681L102.713 87.0193L114.855 86.6119L112.547 94.6861L100.405 95.0951L99.3925 99.0357L111.261 98.6359L111.258 98.6374Z" fill="white"/>
<path d="M141.897 85.7026L145.49 73.6756L153.464 73.4065L144.287 105.526L136.268 105.795L139.588 93.7784L135.737 93.9077L132.189 105.933L124.17 106.204L133.391 74.0845L141.365 73.817L138.045 85.8349L141.894 85.7057L141.897 85.7026Z" fill="white"/>
<path d="M163.086 96.8936L169.955 72.8517L177.974 72.5811L169.806 100.804L164.629 104.84L152.804 105.238L149.873 101.476L157.815 73.2621L165.834 72.9915L158.965 97.0335L163.087 96.8951L163.086 96.8936Z" fill="white"/>
<path d="M174.141 104.521L183.317 72.4032L199.312 71.865L202.151 75.6323L199.885 83.7522L194.691 88.0607L197.532 91.8295L195.221 99.9494L190.133 103.983L174.14 104.521H174.141ZM189.559 92.0971L185.708 92.2278L184.425 96.1775L188.547 96.0392L189.559 92.0986V92.0971ZM187.971 84.1535L191.866 84.0213L193.151 80.0685L188.983 80.2099L187.969 84.1535H187.971Z" fill="white"/>
<path d="M42.2724 117.125L39.0116 117.236L39.3454 115.927L42.6199 115.817L43.9931 115.769L47.2388 115.66L46.905 116.967L43.6441 117.078L41.403 126.06L40.0298 126.107L42.2709 117.127L42.2724 117.125Z" fill="#672A6B"/>
<path d="M48.5468 114.924L49.8336 114.88L48.5377 120.04H48.5666C48.8275 119.664 49.1856 119.357 49.6393 119.117C50.0946 118.875 50.5831 118.746 51.1082 118.728C51.4329 118.717 51.7318 118.757 52.0064 118.85C52.2811 118.941 52.5041 119.09 52.6756 119.295C52.8471 119.5 52.9563 119.768 53.0049 120.098C53.0534 120.428 53.0185 120.82 52.9002 121.276L51.8001 125.708L50.5133 125.752L51.5285 121.683C51.6028 121.364 51.6256 121.092 51.5998 120.867C51.5725 120.642 51.5072 120.461 51.4041 120.326C51.3009 120.191 51.1613 120.095 50.9883 120.037C50.8138 119.981 50.6272 119.955 50.4269 119.962C50.1598 119.972 49.9003 120.023 49.6469 120.119C49.3935 120.215 49.1599 120.359 48.9429 120.554C48.7259 120.748 48.5347 120.993 48.3678 121.287C48.2009 121.58 48.0673 121.927 47.9657 122.323L47.081 125.869L45.7943 125.913L48.5468 114.926V114.924Z" fill="#672A6B"/>
<path d="M55.4371 122.646C55.3658 122.947 55.3628 123.217 55.4311 123.461C55.4993 123.704 55.6162 123.908 55.7831 124.075C55.95 124.242 56.1594 124.37 56.4113 124.456C56.6632 124.545 56.9378 124.583 57.2352 124.572C57.6373 124.558 58.0091 124.452 58.3505 124.253C58.6919 124.053 59.0288 123.795 59.3596 123.476L60.1319 124.199C59.1866 125.163 58.0713 125.666 56.7846 125.711C56.2505 125.729 55.7922 125.653 55.4068 125.484C55.0214 125.314 54.7194 125.072 54.4994 124.757C54.2779 124.443 54.1398 124.069 54.0852 123.632C54.029 123.198 54.0685 122.723 54.2035 122.209C54.3279 121.695 54.5343 121.217 54.8226 120.77C55.1109 120.323 55.4523 119.932 55.8453 119.596C56.2398 119.261 56.6723 118.994 57.1472 118.795C57.6206 118.597 58.1092 118.489 58.616 118.471C59.2169 118.451 59.6979 118.541 60.0606 118.739C60.4232 118.938 60.6933 119.205 60.8739 119.54C61.0545 119.874 61.1485 120.256 61.1576 120.683C61.1668 121.11 61.1167 121.546 61.0089 121.992L60.8845 122.457L55.4356 122.641L55.4371 122.646ZM59.7875 121.461C59.8482 121.171 59.8694 120.906 59.8482 120.666C59.8269 120.428 59.7601 120.221 59.6463 120.046C59.5325 119.873 59.3656 119.739 59.1471 119.645C58.9286 119.55 58.6555 119.509 58.3293 119.521C58.0121 119.532 57.7071 119.602 57.4158 119.733C57.1245 119.862 56.8589 120.028 56.6207 120.228C56.3825 120.429 56.1837 120.65 56.0228 120.89C55.862 121.13 55.7543 121.367 55.6981 121.6L59.7875 121.461Z" fill="#672A6B"/>
<path d="M71.6776 125.034L70.3909 125.078L70.6534 124.017H70.6246C70.3636 124.393 70.0055 124.7 69.5518 124.94C69.0966 125.182 68.608 125.311 68.0829 125.329C67.7491 125.34 67.4472 125.3 67.1771 125.209C66.907 125.118 66.687 124.969 66.5155 124.764C66.344 124.558 66.2348 124.291 66.1862 123.961C66.1377 123.631 66.168 123.239 66.2773 122.783L67.391 118.349L68.6778 118.305L67.6626 122.375C67.5792 122.694 67.5504 122.968 67.5777 123.192C67.6035 123.417 67.6717 123.597 67.7795 123.733C67.8872 123.868 68.0283 123.964 68.2028 124.022C68.3773 124.078 68.564 124.104 68.7643 124.096C69.2984 124.078 69.79 123.882 70.2407 123.506C70.6913 123.131 71.0191 122.541 71.2239 121.737L72.1085 118.191L73.3953 118.147L71.6761 125.036L71.6776 125.034Z" fill="#672A6B"/>
<path d="M75.3421 118.08L76.6288 118.036L76.3663 119.097H76.3952C76.6562 118.723 77.0143 118.415 77.468 118.175C77.9232 117.933 78.4118 117.804 78.9368 117.785C79.2615 117.775 79.5604 117.814 79.8351 117.907C80.1097 117.998 80.3328 118.147 80.5042 118.352C80.6757 118.558 80.7849 118.825 80.8335 119.155C80.8821 119.485 80.8472 119.877 80.7288 120.333L79.6287 124.765L78.342 124.809L79.3571 120.741C79.4314 120.422 79.4542 120.149 79.4284 119.924C79.4011 119.699 79.3358 119.519 79.2327 119.383C79.1295 119.248 78.9899 119.152 78.8169 119.094C78.6424 119.038 78.4558 119.012 78.2555 119.02C77.9884 119.029 77.7289 119.081 77.4755 119.176C77.2221 119.272 76.9885 119.417 76.7715 119.611C76.5545 119.806 76.3633 120.051 76.1964 120.344C76.0295 120.637 75.896 120.984 75.7943 121.381L74.9097 124.926L73.6229 124.97L75.3421 118.082V118.08Z" fill="#672A6B"/>
<path d="M83.3934 117.807L84.6801 117.763L82.9609 124.651L81.6742 124.695L83.3934 117.807ZM83.7151 115.347C83.7818 115.085 83.9321 114.857 84.1627 114.661C84.3933 114.467 84.6376 114.365 84.8956 114.356C85.1535 114.347 85.3523 114.433 85.4934 114.617C85.6346 114.8 85.671 115.022 85.6027 115.283C85.5344 115.545 85.3857 115.773 85.1551 115.969C84.9244 116.163 84.6801 116.265 84.4222 116.274C84.1642 116.283 83.9654 116.197 83.8243 116.014C83.6832 115.832 83.6468 115.61 83.7151 115.348V115.347Z" fill="#672A6B"/>
<path d="M85.9106 117.722L87.3977 117.671L88.1048 122.878L91.3732 117.538L92.7464 117.49L88.3673 124.469L86.9516 124.517L85.9106 117.723V117.722Z" fill="#672A6B"/>
<path d="M93.848 121.344C93.7767 121.645 93.7737 121.916 93.842 122.159C93.9102 122.402 94.0271 122.606 94.194 122.773C94.3609 122.941 94.5703 123.068 94.8222 123.155C95.0741 123.243 95.3487 123.281 95.6461 123.271C96.0482 123.257 96.42 123.15 96.7614 122.951C97.1028 122.752 97.4397 122.494 97.7704 122.174L98.5428 122.898C97.5975 123.862 96.4822 124.365 95.1955 124.409C94.6613 124.427 94.2031 124.351 93.8177 124.183C93.4323 124.014 93.1303 123.771 92.9103 123.458C92.6888 123.143 92.5507 122.769 92.496 122.333C92.4399 121.898 92.4794 121.423 92.6144 120.91C92.7388 120.396 92.9452 119.917 93.2335 119.47C93.5218 119.023 93.8632 118.632 94.2562 118.296C94.6507 117.962 95.0847 117.694 95.5581 117.495C96.0315 117.297 96.5201 117.188 97.0269 117.171C97.6278 117.151 98.1088 117.241 98.4715 117.439C98.8341 117.638 99.1042 117.905 99.2848 118.24C99.4654 118.574 99.5594 118.956 99.5685 119.383C99.5776 119.81 99.5276 120.247 99.4198 120.692L99.2954 121.157L93.8465 121.341L93.848 121.344ZM98.1983 120.16C98.259 119.87 98.2803 119.605 98.259 119.365C98.2378 119.126 98.171 118.919 98.0572 118.745C97.9434 118.571 97.7765 118.438 97.558 118.343C97.3395 118.249 97.0664 118.208 96.7401 118.22C96.423 118.231 96.118 118.301 95.8267 118.431C95.5353 118.562 95.2698 118.726 95.0316 118.927C94.7934 119.128 94.5946 119.348 94.4337 119.588C94.2729 119.829 94.1652 120.066 94.109 120.298L98.1983 120.16Z" fill="#672A6B"/>
<path d="M101.826 117.183L103.113 117.139L102.851 118.2H102.879C103.14 117.825 103.488 117.518 103.923 117.278C104.359 117.037 104.791 116.91 105.221 116.894C105.43 116.887 105.612 116.91 105.769 116.963L105.353 118.375C105.251 118.349 105.151 118.33 105.054 118.313C104.955 118.298 104.855 118.292 104.75 118.295C104.121 118.316 103.596 118.512 103.174 118.882C102.752 119.251 102.445 119.813 102.256 120.569L101.394 124.028L100.107 124.072L101.826 117.183Z" fill="#672A6B"/>
<path d="M110.283 118.611C110.181 118.422 110.034 118.266 109.844 118.143C109.655 118.019 109.397 117.963 109.072 117.974C108.767 117.985 108.485 118.059 108.228 118.197C107.97 118.336 107.812 118.53 107.756 118.783C107.705 118.986 107.726 119.149 107.822 119.271C107.917 119.392 108.043 119.49 108.202 119.561C108.36 119.633 108.533 119.684 108.72 119.716C108.907 119.748 109.069 119.777 109.208 119.8C109.468 119.858 109.706 119.932 109.925 120.02C110.143 120.108 110.321 120.228 110.462 120.376C110.601 120.525 110.692 120.709 110.733 120.929C110.774 121.15 110.759 121.419 110.685 121.738C110.583 122.126 110.419 122.46 110.193 122.742C109.967 123.023 109.7 123.255 109.395 123.439C109.09 123.622 108.762 123.759 108.416 123.847C108.069 123.935 107.729 123.985 107.395 123.997C106.832 124.016 106.363 123.946 105.987 123.786C105.611 123.626 105.31 123.319 105.087 122.865L106.251 122.018C106.409 122.225 106.597 122.406 106.819 122.561C107.04 122.717 107.338 122.789 107.711 122.775C108.046 122.764 108.375 122.682 108.697 122.533C109.019 122.383 109.222 122.158 109.304 121.857C109.354 121.664 109.336 121.506 109.249 121.382C109.163 121.261 109.045 121.167 108.896 121.1C108.746 121.033 108.58 120.981 108.398 120.943C108.216 120.907 108.06 120.875 107.929 120.85C107.668 120.793 107.424 120.723 107.193 120.645C106.964 120.566 106.772 120.458 106.615 120.318C106.459 120.18 106.353 120 106.297 119.782C106.24 119.563 106.254 119.289 106.339 118.959C106.427 118.6 106.579 118.286 106.794 118.015C107.01 117.743 107.262 117.516 107.548 117.334C107.835 117.151 108.145 117.012 108.479 116.913C108.812 116.815 109.137 116.761 109.451 116.75C109.91 116.735 110.325 116.806 110.702 116.967C111.078 117.127 111.337 117.407 111.483 117.805L110.281 118.609L110.283 118.611Z" fill="#672A6B"/>
<path d="M113.439 120.68C113.366 120.981 113.364 121.252 113.433 121.495C113.501 121.738 113.618 121.942 113.785 122.109C113.952 122.276 114.161 122.404 114.413 122.491C114.665 122.579 114.94 122.617 115.237 122.606C115.639 122.593 116.011 122.486 116.352 122.287C116.694 122.088 117.03 121.829 117.361 121.51L118.134 122.234C117.188 123.198 116.073 123.701 114.786 123.745C114.252 123.763 113.792 123.687 113.408 123.518C113.023 123.348 112.721 123.106 112.501 122.793C112.28 122.479 112.141 122.105 112.087 121.668C112.031 121.233 112.07 120.759 112.205 120.245C112.33 119.731 112.536 119.252 112.824 118.806C113.113 118.359 113.452 117.968 113.847 117.632C114.242 117.297 114.676 117.03 115.149 116.831C115.622 116.631 116.112 116.524 116.618 116.507C117.219 116.487 117.7 116.577 118.062 116.774C118.425 116.974 118.695 117.241 118.876 117.576C119.056 117.91 119.15 118.292 119.159 118.719C119.168 119.146 119.118 119.582 119.011 120.028L118.886 120.493L113.437 120.677L113.439 120.68ZM117.789 119.496C117.85 119.205 117.871 118.941 117.85 118.701C117.829 118.462 117.762 118.255 117.648 118.08C117.534 117.907 117.367 117.773 117.149 117.679C116.93 117.585 116.657 117.544 116.331 117.556C116.014 117.566 115.71 117.638 115.417 117.767C115.126 117.898 114.861 118.062 114.622 118.263C114.384 118.463 114.185 118.684 114.025 118.924C113.864 119.164 113.754 119.401 113.701 119.634L117.791 119.496H117.789Z" fill="#672A6B"/>
<path d="M124.205 119.839C124.328 119.336 124.538 118.863 124.836 118.421C125.133 117.978 125.485 117.588 125.895 117.247C126.303 116.907 126.749 116.635 127.233 116.431C127.717 116.227 128.211 116.116 128.717 116.099C129.223 116.083 129.669 116.16 130.059 116.335C130.447 116.51 130.764 116.756 131.009 117.074C131.253 117.392 131.412 117.766 131.487 118.196C131.561 118.626 131.537 119.093 131.414 119.596C131.28 120.101 131.068 120.575 130.775 121.022C130.482 121.469 130.132 121.86 129.723 122.196C129.315 122.532 128.869 122.801 128.385 123.005C127.901 123.208 127.406 123.319 126.901 123.336C126.396 123.353 125.947 123.275 125.554 123.1C125.161 122.927 124.843 122.682 124.604 122.369C124.364 122.056 124.205 121.682 124.126 121.247C124.047 120.812 124.073 120.344 124.206 119.839H124.205ZM125.578 119.792C125.491 120.14 125.461 120.461 125.49 120.753C125.519 121.045 125.602 121.293 125.742 121.493C125.88 121.696 126.074 121.852 126.323 121.963C126.572 122.076 126.868 122.124 127.211 122.114C127.553 122.102 127.878 122.032 128.182 121.901C128.485 121.77 128.76 121.598 129.003 121.382C129.245 121.168 129.456 120.911 129.638 120.612C129.819 120.312 129.954 119.988 130.04 119.64C130.127 119.292 130.157 118.971 130.128 118.679C130.1 118.387 130.013 118.141 129.871 117.939C129.726 117.737 129.534 117.58 129.289 117.469C129.045 117.357 128.752 117.306 128.409 117.319C128.066 117.331 127.742 117.401 127.438 117.532C127.133 117.662 126.857 117.834 126.61 118.05C126.362 118.264 126.15 118.521 125.974 118.821C125.798 119.12 125.666 119.444 125.579 119.792H125.578Z" fill="#672A6B"/>
<path d="M134.102 117.214L132.644 117.262L132.93 116.128L134.388 116.078L134.776 114.538C135.013 113.617 135.357 112.927 135.813 112.464C136.268 112.002 136.917 111.757 137.762 111.729C137.905 111.724 138.054 111.724 138.21 111.729C138.366 111.733 138.526 111.756 138.691 111.798L138.26 112.966C138.151 112.922 138.04 112.892 137.929 112.876C137.817 112.861 137.694 112.855 137.561 112.86C137.322 112.867 137.122 112.91 136.961 112.989C136.8 113.066 136.664 113.174 136.555 113.313C136.444 113.451 136.351 113.615 136.278 113.805C136.204 113.995 136.134 114.211 136.069 114.453L135.679 116.037L137.207 115.985L136.923 117.119L135.383 117.171L133.958 122.925L132.672 122.97L134.106 117.215L134.102 117.214Z" fill="#672A6B"/>
<path d="M147.719 122.401C147.584 122.924 147.375 123.404 147.093 123.841C146.811 124.277 146.468 124.659 146.064 124.986C145.66 125.312 145.208 125.569 144.706 125.759C144.204 125.949 143.676 126.053 143.122 126.073C142.472 126.094 141.9 126.022 141.404 125.857C140.909 125.691 140.477 125.388 140.108 124.949L141.248 123.815C141.492 124.172 141.788 124.438 142.132 124.613C142.478 124.789 142.899 124.868 143.395 124.852C143.871 124.835 144.284 124.751 144.635 124.601C144.984 124.449 145.278 124.259 145.518 124.031C145.757 123.801 145.95 123.543 146.097 123.255C146.245 122.967 146.357 122.678 146.437 122.386L146.68 121.369H146.638C146.286 121.794 145.874 122.114 145.404 122.327C144.934 122.539 144.465 122.653 143.997 122.67C143.501 122.687 143.064 122.612 142.683 122.448C142.302 122.284 141.999 122.048 141.773 121.744C141.547 121.44 141.4 121.075 141.334 120.65C141.269 120.224 141.302 119.76 141.434 119.256C141.557 118.752 141.756 118.276 142.031 117.831C142.304 117.384 142.632 116.992 143.011 116.653C143.392 116.314 143.818 116.045 144.292 115.846C144.765 115.648 145.264 115.538 145.788 115.522C146.246 115.507 146.665 115.593 147.047 115.782C147.43 115.97 147.7 116.245 147.859 116.604H147.888L148.128 115.616L149.414 115.572L147.716 122.403L147.719 122.401ZM145.639 116.736C145.296 116.749 144.971 116.819 144.668 116.949C144.363 117.08 144.087 117.252 143.839 117.468C143.592 117.682 143.38 117.939 143.204 118.238C143.028 118.538 142.896 118.862 142.809 119.21C142.626 119.908 142.682 120.461 142.978 120.869C143.274 121.276 143.764 121.469 144.451 121.445C145.138 121.42 145.733 121.192 146.238 120.758C146.744 120.323 147.088 119.756 147.272 119.058C147.358 118.71 147.389 118.389 147.36 118.097C147.331 117.805 147.244 117.559 147.102 117.357C146.959 117.155 146.765 116.998 146.521 116.887C146.276 116.774 145.984 116.726 145.641 116.736H145.639Z" fill="#672A6B"/>
<path d="M151.181 116.346C151.628 115.994 152.112 115.725 152.633 115.54C153.152 115.354 153.651 115.253 154.127 115.237C154.623 115.221 155.035 115.269 155.364 115.383C155.693 115.497 155.945 115.657 156.121 115.862C156.297 116.067 156.403 116.306 156.438 116.58C156.473 116.852 156.455 117.139 156.384 117.439L155.502 120.955C155.437 121.197 155.382 121.42 155.341 121.624C155.299 121.828 155.268 122.021 155.247 122.203L154.103 122.241C154.132 122.068 154.164 121.893 154.197 121.72C154.23 121.545 154.273 121.372 154.32 121.197H154.291C153.888 121.653 153.469 121.98 153.033 122.177C152.598 122.375 152.123 122.482 151.608 122.5C151.294 122.51 151.006 122.477 150.744 122.399C150.481 122.322 150.266 122.2 150.094 122.033C149.923 121.866 149.807 121.656 149.745 121.404C149.683 121.151 149.695 120.855 149.782 120.516C149.889 120.07 150.079 119.695 150.351 119.388C150.622 119.081 150.953 118.827 151.341 118.626C151.73 118.425 152.159 118.276 152.631 118.179C153.103 118.082 153.596 118.024 154.111 118.006L155.054 117.974L155.13 117.683C155.179 117.509 155.191 117.335 155.168 117.164C155.145 116.992 155.085 116.838 154.985 116.701C154.886 116.566 154.746 116.46 154.564 116.384C154.382 116.308 154.153 116.276 153.877 116.285C153.63 116.294 153.405 116.324 153.203 116.379C153.003 116.434 152.819 116.501 152.654 116.578C152.489 116.656 152.331 116.745 152.182 116.846C152.033 116.948 151.886 117.043 151.743 117.135L151.178 116.347L151.181 116.346ZM154.13 118.954C153.824 118.965 153.507 118.992 153.177 119.037C152.848 119.082 152.539 119.157 152.25 119.263C151.962 119.37 151.712 119.512 151.501 119.692C151.29 119.873 151.15 120.098 151.08 120.368C150.979 120.767 151.036 121.046 151.256 121.212C151.476 121.378 151.81 121.452 152.261 121.437C152.614 121.425 152.93 121.355 153.208 121.224C153.485 121.095 153.725 120.931 153.929 120.732C154.132 120.533 154.297 120.314 154.425 120.073C154.552 119.833 154.643 119.598 154.698 119.365L154.819 118.929L154.13 118.951V118.954Z" fill="#672A6B"/>
<path d="M158.784 115.253L159.986 115.211L159.722 116.286H159.751C159.808 116.188 159.913 116.064 160.063 115.914C160.212 115.765 160.4 115.622 160.625 115.484C160.849 115.347 161.097 115.228 161.37 115.126C161.641 115.026 161.931 114.97 162.236 114.961C163.218 114.927 163.813 115.33 164.021 116.168C164.353 115.734 164.746 115.403 165.198 115.177C165.65 114.95 166.081 114.83 166.489 114.816C167.013 114.798 167.418 114.871 167.708 115.034C167.998 115.196 168.199 115.418 168.315 115.698C168.43 115.978 168.479 116.297 168.462 116.659C168.445 117.019 168.386 117.395 168.284 117.781L167.304 121.791L166.018 121.835L166.978 117.998C167.045 117.737 167.09 117.486 167.113 117.244C167.136 117.004 167.119 116.793 167.063 116.612C167.007 116.431 166.898 116.288 166.734 116.183C166.57 116.078 166.33 116.031 166.016 116.042C165.397 116.063 164.905 116.271 164.543 116.668C164.18 117.065 163.92 117.568 163.766 118.179L162.826 121.943L161.54 121.987L162.432 118.383C162.517 118.053 162.576 117.753 162.613 117.483C162.647 117.212 162.641 116.98 162.591 116.785C162.541 116.59 162.438 116.44 162.279 116.335C162.119 116.23 161.883 116.183 161.569 116.194C161.339 116.201 161.106 116.254 160.866 116.355C160.626 116.455 160.405 116.598 160.197 116.788C159.99 116.978 159.804 117.217 159.638 117.506C159.473 117.794 159.34 118.133 159.239 118.521L158.35 122.095L157.063 122.139L158.783 115.251L158.784 115.253Z" fill="#672A6B"/>
<path d="M170.94 118.731C170.867 119.032 170.865 119.303 170.934 119.546C171.002 119.789 171.119 119.993 171.286 120.16C171.453 120.327 171.662 120.455 171.914 120.542C172.166 120.63 172.441 120.668 172.738 120.657C173.14 120.644 173.512 120.537 173.853 120.338C174.195 120.139 174.531 119.88 174.862 119.561L175.635 120.285C174.689 121.249 173.574 121.752 172.287 121.796C171.753 121.814 171.295 121.738 170.909 121.57C170.524 121.399 170.222 121.158 170.002 120.843C169.781 120.528 169.642 120.154 169.588 119.718C169.532 119.283 169.571 118.809 169.706 118.295C169.831 117.781 170.037 117.302 170.325 116.855C170.614 116.408 170.953 116.017 171.348 115.681C171.743 115.347 172.176 115.079 172.65 114.88C173.123 114.683 173.612 114.575 174.119 114.556C174.72 114.537 175.201 114.626 175.563 114.824C175.926 115.023 176.196 115.291 176.378 115.625C176.559 115.96 176.653 116.341 176.662 116.768C176.671 117.196 176.621 117.632 176.513 118.077L176.389 118.543L170.94 118.727V118.731ZM175.29 117.547C175.351 117.256 175.372 116.992 175.351 116.752C175.33 116.513 175.263 116.306 175.149 116.131C175.035 115.958 174.868 115.824 174.65 115.73C174.431 115.636 174.158 115.595 173.832 115.607C173.515 115.618 173.211 115.687 172.918 115.818C172.627 115.947 172.362 116.113 172.123 116.314C171.885 116.515 171.686 116.735 171.526 116.975C171.365 117.215 171.257 117.453 171.202 117.685L175.292 117.547H175.29Z" fill="#672A6B"/>
<path d="M182.085 116.178C181.983 115.99 181.836 115.833 181.646 115.71C181.457 115.587 181.199 115.531 180.874 115.541C180.569 115.552 180.287 115.626 180.031 115.765C179.773 115.903 179.615 116.098 179.559 116.35C179.507 116.554 179.528 116.717 179.624 116.838C179.719 116.96 179.845 117.057 180.005 117.127C180.163 117.198 180.335 117.25 180.522 117.282C180.709 117.314 180.871 117.343 181.011 117.366C181.27 117.423 181.508 117.498 181.727 117.586C181.945 117.674 182.123 117.794 182.264 117.942C182.404 118.091 182.495 118.275 182.536 118.495C182.577 118.716 182.561 118.985 182.487 119.304C182.385 119.692 182.222 120.026 181.996 120.307C181.769 120.589 181.502 120.821 181.197 121.005C180.892 121.188 180.565 121.325 180.219 121.413C179.871 121.501 179.531 121.551 179.197 121.563C178.635 121.581 178.166 121.512 177.789 121.352C177.413 121.192 177.113 120.885 176.89 120.431L178.053 119.584C178.211 119.791 178.399 119.971 178.621 120.127C178.842 120.283 179.14 120.355 179.513 120.341C179.848 120.329 180.178 120.248 180.499 120.099C180.821 119.949 181.024 119.724 181.106 119.423C181.156 119.23 181.138 119.071 181.052 118.948C180.965 118.827 180.847 118.732 180.698 118.666C180.548 118.599 180.383 118.547 180.2 118.509C180.018 118.472 179.862 118.441 179.732 118.416C179.471 118.358 179.226 118.288 178.996 118.211C178.767 118.132 178.574 118.024 178.418 117.884C178.261 117.746 178.155 117.566 178.099 117.347C178.043 117.129 178.056 116.855 178.141 116.525C178.229 116.166 178.381 115.851 178.597 115.581C178.812 115.309 179.064 115.082 179.351 114.9C179.637 114.717 179.947 114.577 180.281 114.479C180.615 114.381 180.939 114.327 181.254 114.316C181.712 114.301 182.128 114.372 182.504 114.533C182.88 114.693 183.14 114.973 183.285 115.371L182.084 116.175L182.085 116.178Z" fill="#672A6B"/>
<path d="M5.59592 117.2C5.25147 117.2 4.96772 117.051 4.95558 116.863C4.94344 116.67 5.22112 116.508 5.57467 116.502L37.0526 115.931C37.4092 115.926 37.7021 116.075 37.7142 116.268C37.7264 116.461 37.4487 116.622 37.0951 116.629L5.61716 117.2C5.61716 117.2 5.6035 117.2 5.59592 117.2Z" fill="#672A6B"/>
</g>
<defs>
<clipPath id="clip0_489_522">
<rect width="202.222" height="123.215" fill="white" transform="translate(2.88892 2.89233)"/>
</clipPath>
</defs>
</svg>
