<svg width="215" height="35" viewBox="0 0 215 35" fill="none" xmlns="http://www.w3.org/2000/svg">
<path d="M78.6 0H46.4C45.6256 0 45 0.625625 45 1.4V33.6C45 34.3744 45.6256 35 46.4 35H78.6C79.3744 35 80 34.3744 80 33.6V1.4C80 0.625625 79.3744 0 78.6 0ZM74.5575 10.2156H71.7619C69.57 10.2156 69.1456 11.2569 69.1456 12.7881V16.1612H74.3781L73.6956 21.4419H69.1456V35H63.69V21.4463H59.1269V16.1612H63.69V12.2675C63.69 7.74813 66.4506 5.285 70.4844 5.285C72.4181 5.285 74.0763 5.42938 74.5619 5.495V10.2156H74.5575Z" fill="white"/>
<path d="M33.6 0H1.4C0.625625 0 0 0.625625 0 1.4V33.6C0 34.3744 0.625625 35 1.4 35H33.6C34.3744 35 35 34.3744 35 33.6V1.4C35 0.625625 34.3744 0 33.6 0ZM26.9194 12.6744C26.9325 12.88 26.9325 13.0944 26.9325 13.3044C26.9325 19.7269 22.0413 27.125 13.1031 27.125C10.3469 27.125 7.79187 26.3244 5.63937 24.9463C6.03312 24.99 6.40938 25.0075 6.81188 25.0075C9.08687 25.0075 11.1781 24.2375 12.845 22.9338C10.71 22.89 8.91625 21.49 8.30375 19.565C9.05187 19.6744 9.72562 19.6744 10.4956 19.4775C9.3963 19.2542 8.4082 18.6571 7.6992 17.7878C6.99019 16.9185 6.604 15.8305 6.60625 14.7088V14.6475C7.24937 15.0106 8.00625 15.2337 8.79813 15.2644C8.13244 14.8207 7.5865 14.2197 7.20874 13.5145C6.83097 12.8093 6.63304 12.0219 6.6325 11.2219C6.6325 10.3162 6.86875 9.48938 7.29313 8.77187C8.51332 10.274 10.0359 11.5025 11.762 12.3776C13.4881 13.2527 15.379 13.7548 17.3119 13.8512C16.625 10.5481 19.0925 7.875 22.0588 7.875C23.4587 7.875 24.7188 8.46125 25.6069 9.40625C26.705 9.20062 27.755 8.78937 28.6912 8.23812C28.3281 9.3625 27.5669 10.3119 26.5562 10.9112C27.5362 10.8062 28.4812 10.535 29.3562 10.1544C28.6956 11.1256 27.8687 11.9875 26.9194 12.6744Z" fill="white"/>
<path d="M107.495 11.6642C104.282 11.6642 101.66 14.2866 101.66 17.5C101.66 20.7134 104.282 23.3358 107.495 23.3358C110.709 23.3358 113.331 20.7134 113.331 17.5C113.331 14.2866 110.709 11.6642 107.495 11.6642ZM124.998 17.5C124.998 15.0834 125.02 12.6886 124.884 10.2764C124.749 7.47448 124.109 4.9878 122.06 2.93891C120.007 0.885649 117.525 0.250846 114.723 0.115129C112.307 -0.0205877 109.912 0.0013022 107.5 0.0013022C105.083 0.0013022 102.688 -0.0205877 100.276 0.115129C97.4743 0.250846 94.9877 0.890027 92.9389 2.93891C90.8856 4.99217 90.2508 7.47448 90.1151 10.2764C89.9794 12.693 90.0013 15.0877 90.0013 17.5C90.0013 19.9123 89.9794 22.3114 90.1151 24.7236C90.2508 27.5255 90.89 30.0122 92.9389 32.0611C94.9921 34.1143 97.4743 34.7492 100.276 34.8849C102.693 35.0206 105.087 34.9987 107.5 34.9987C109.916 34.9987 112.311 35.0206 114.723 34.8849C117.525 34.7492 120.012 34.11 122.06 32.0611C124.114 30.0078 124.749 27.5255 124.884 24.7236C125.024 22.3114 124.998 19.9166 124.998 17.5ZM107.495 26.4792C102.526 26.4792 98.5163 22.469 98.5163 17.5C98.5163 12.531 102.526 8.52081 107.495 8.52081C112.464 8.52081 116.474 12.531 116.474 17.5C116.474 22.469 112.464 26.4792 107.495 26.4792ZM116.842 10.2501C115.682 10.2501 114.745 9.31322 114.745 8.15306C114.745 6.9929 115.682 6.05602 116.842 6.05602C118.002 6.05602 118.939 6.9929 118.939 8.15306C118.939 8.42854 118.885 8.70139 118.78 8.95597C118.675 9.21055 118.52 9.44187 118.326 9.63666C118.131 9.83146 117.9 9.98591 117.645 10.0912C117.39 10.1964 117.118 10.2504 116.842 10.2501Z" fill="white"/>
<path d="M164.629 7.17716C162.398 6.17094 160.006 5.42721 157.505 5.0043C157.483 5.00003 157.46 5.00278 157.439 5.01219C157.418 5.02159 157.401 5.03718 157.39 5.0568C157.084 5.59491 156.742 6.29635 156.503 6.8505C153.851 6.45419 151.154 6.45419 148.502 6.8505C148.235 6.23635 147.935 5.63753 147.602 5.0568C147.591 5.03694 147.573 5.021 147.553 5.0111C147.532 5.0012 147.509 4.99781 147.487 5.00139C144.987 5.42429 142.595 6.16802 140.363 7.1757C140.344 7.18375 140.327 7.19749 140.316 7.21507C135.778 13.8868 134.534 20.3936 135.145 26.8189C135.147 26.8346 135.152 26.8498 135.159 26.8636C135.167 26.8774 135.178 26.8895 135.19 26.8991C137.839 28.8276 140.794 30.2966 143.93 31.2448C143.952 31.2515 143.975 31.2515 143.997 31.2447C144.019 31.238 144.038 31.2248 144.052 31.2069C144.727 30.3043 145.325 29.3467 145.84 28.3443C145.847 28.3305 145.851 28.3155 145.852 28.3C145.853 28.2846 145.851 28.2692 145.845 28.2548C145.839 28.2404 145.831 28.2274 145.819 28.2167C145.808 28.2059 145.795 28.1977 145.78 28.1926C144.838 27.8378 143.926 27.4097 143.05 26.9122C143.035 26.9032 143.021 26.8905 143.012 26.8751C143.002 26.8598 142.997 26.8423 142.996 26.8242C142.994 26.8061 142.998 26.7881 143.005 26.7716C143.013 26.7552 143.024 26.7408 143.039 26.7299C143.223 26.5943 143.406 26.4529 143.581 26.3114C143.597 26.2987 143.616 26.2906 143.636 26.288C143.656 26.2854 143.677 26.2885 143.695 26.2968C149.422 28.8692 155.624 28.8692 161.283 26.2968C161.302 26.288 161.323 26.2845 161.343 26.2869C161.363 26.2892 161.383 26.2972 161.399 26.3099C161.574 26.4528 161.756 26.5943 161.941 26.7299C161.956 26.7406 161.967 26.7547 161.975 26.771C161.983 26.7874 161.987 26.8054 161.986 26.8234C161.985 26.8415 161.98 26.859 161.97 26.8745C161.961 26.89 161.948 26.903 161.932 26.9122C161.06 27.4139 160.153 27.8382 159.201 28.1911C159.186 28.1964 159.173 28.2048 159.162 28.2157C159.151 28.2265 159.142 28.2397 159.136 28.2542C159.131 28.2687 159.128 28.2842 159.129 28.2997C159.13 28.3153 159.134 28.3304 159.141 28.3443C159.666 29.3461 160.267 30.2998 160.928 31.2054C160.941 31.224 160.961 31.2379 160.982 31.2452C161.004 31.2525 161.028 31.2529 161.05 31.2463C164.192 30.3008 167.151 28.831 169.803 26.8991C169.816 26.89 169.827 26.8783 169.835 26.8648C169.843 26.8512 169.848 26.836 169.849 26.8203C170.579 19.3918 168.627 12.9374 164.674 7.21799C164.664 7.1994 164.648 7.18491 164.629 7.17716ZM146.696 22.9063C144.972 22.9063 143.551 21.3474 143.551 19.4356C143.551 17.5223 144.945 15.9648 146.696 15.9648C148.461 15.9648 149.869 17.5354 149.842 19.4356C149.842 21.3488 148.448 22.9063 146.696 22.9063ZM158.326 22.9063C156.601 22.9063 155.181 21.3474 155.181 19.4356C155.181 17.5223 156.573 15.9648 158.326 15.9648C160.091 15.9648 161.499 17.5354 161.472 19.4356C161.472 21.3488 160.092 22.9063 158.326 22.9063Z" fill="white"/>
<path d="M214.27 9.74904C214.07 9.02308 213.68 8.36104 213.137 7.82918C212.594 7.29733 211.918 6.91431 211.176 6.71847C208.445 6 197.5 6 197.5 6C197.5 6 186.555 6 183.824 6.71465C183.082 6.90986 182.406 7.29266 181.863 7.82461C181.319 8.35656 180.929 9.01894 180.73 9.74522C180 12.4204 180 18 180 18C180 18 180 23.5796 180.73 26.251C181.133 27.7261 182.32 28.8879 183.824 29.2815C186.555 30 197.5 30 197.5 30C197.5 30 208.445 30 211.176 29.2815C212.684 28.8879 213.867 27.7261 214.27 26.251C215 23.5796 215 18 215 18C215 18 215 12.4204 214.27 9.74904ZM194.023 23.121V12.879L203.086 17.9618L194.023 23.121Z" fill="white"/>
</svg>
