<svg width="35" height="35" viewBox="0 0 35 35" fill="none" xmlns="http://www.w3.org/2000/svg">
<path d="M33.6 0H1.4C0.625625 0 0 0.625625 0 1.4V33.6C0 34.3744 0.625625 35 1.4 35H33.6C34.3744 35 35 34.3744 35 33.6V1.4C35 0.625625 34.3744 0 33.6 0ZM26.9194 12.6744C26.9325 12.88 26.9325 13.0944 26.9325 13.3044C26.9325 19.7269 22.0413 27.125 13.1031 27.125C10.3469 27.125 7.79187 26.3244 5.63937 24.9463C6.03312 24.99 6.40938 25.0075 6.81188 25.0075C9.08687 25.0075 11.1781 24.2375 12.845 22.9338C10.71 22.89 8.91625 21.49 8.30375 19.565C9.05187 19.6744 9.72562 19.6744 10.4956 19.4775C9.3963 19.2542 8.4082 18.6571 7.6992 17.7878C6.99019 16.9185 6.604 15.8305 6.60625 14.7088V14.6475C7.24937 15.0106 8.00625 15.2337 8.79813 15.2644C8.13244 14.8207 7.5865 14.2197 7.20874 13.5145C6.83097 12.8093 6.63304 12.0219 6.6325 11.2219C6.6325 10.3162 6.86875 9.48938 7.29313 8.77187C8.51332 10.274 10.0359 11.5025 11.762 12.3776C13.4881 13.2527 15.379 13.7548 17.3119 13.8512C16.625 10.5481 19.0925 7.875 22.0588 7.875C23.4587 7.875 24.7188 8.46125 25.6069 9.40625C26.705 9.20062 27.755 8.78937 28.6912 8.23812C28.3281 9.3625 27.5669 10.3119 26.5562 10.9112C27.5362 10.8062 28.4812 10.535 29.3562 10.1544C28.6956 11.1256 27.8687 11.9875 26.9194 12.6744Z" fill="white"/>
</svg>
