<svg width="35" height="24" viewBox="0 0 35 24" fill="none" xmlns="http://www.w3.org/2000/svg">
<path d="M34.2695 3.74904C34.0703 3.02308 33.6797 2.36104 33.1367 1.82918C32.5938 1.29733 31.9176 0.914313 31.1758 0.718471C28.4453 1.45785e-07 17.5 0 17.5 0C17.5 0 6.55469 -1.45785e-07 3.82422 0.71465C3.08211 0.909856 2.40556 1.29266 1.86252 1.82461C1.31948 2.35656 0.92906 3.01894 0.730469 3.74522C-1.49012e-07 6.42038 0 12 0 12C0 12 -1.49012e-07 17.5796 0.730469 20.251C1.13281 21.7261 2.32031 22.8879 3.82422 23.2815C6.55469 24 17.5 24 17.5 24C17.5 24 28.4453 24 31.1758 23.2815C32.6836 22.8879 33.8672 21.7261 34.2695 20.251C35 17.5796 35 12 35 12C35 12 35 6.42038 34.2695 3.74904ZM14.0234 17.121V6.87898L23.0859 11.9618L14.0234 17.121Z" fill="white"/>
</svg>
